<svg width="32" height="32" viewBox="0 0 32 32" fill="none" xmlns="http://www.w3.org/2000/svg">
<path d="M28.0929 6.97335C25.9462 6.76002 23.7996 6.60002 21.6396 6.48002V6.46669L21.3462 4.73335C21.1462 3.50669 20.8529 1.66669 17.7329 1.66669H14.2396C11.1329 1.66669 10.8395 3.42669 10.6262 4.72002L10.3462 6.42669C9.10618 6.50669 7.86618 6.58669 6.62618 6.70669L3.90619 6.97335C3.34619 7.02669 2.94619 7.52002 2.99952 8.06669C3.05285 8.61335 3.53285 9.01335 4.09285 8.96002L6.81285 8.69335C13.7996 8.00002 20.8396 8.26669 27.9062 8.97335C27.9462 8.97335 27.9729 8.97335 28.0129 8.97335C28.5196 8.97335 28.9596 8.58669 29.0129 8.06669C29.0529 7.52002 28.6529 7.02669 28.0929 6.97335Z" fill="black"/>
<path d="M25.6396 10.8533C25.3196 10.52 24.8796 10.3333 24.4263 10.3333H7.57304C7.11971 10.3333 6.66637 10.52 6.35971 10.8533C6.05304 11.1866 5.87971 11.64 5.90637 12.1066L6.73304 25.7866C6.87971 27.8133 7.06637 30.3466 11.7197 30.3466H20.2796C24.933 30.3466 25.1198 27.8266 25.2663 25.7866L26.093 12.12C26.1196 11.64 25.9463 11.1866 25.6396 10.8533ZM18.213 23.6666H13.773C13.2264 23.6666 12.773 23.2133 12.773 22.6666C12.773 22.12 13.2264 21.6666 13.773 21.6666H18.213C18.7596 21.6666 19.213 22.12 19.213 22.6666C19.213 23.2133 18.7596 23.6666 18.213 23.6666ZM19.333 18.3333H12.6664C12.1197 18.3333 11.6664 17.88 11.6664 17.3333C11.6664 16.7866 12.1197 16.3333 12.6664 16.3333H19.333C19.8796 16.3333 20.333 16.7866 20.333 17.3333C20.333 17.88 19.8796 18.3333 19.333 18.3333Z" fill="black"/>
</svg>
