<svg width="32" height="32" viewBox="0 0 32 32" fill="none" xmlns="http://www.w3.org/2000/svg">
<path d="M23.3722 10.36C23.2788 10.3466 23.1855 10.3466 23.0922 10.36C21.0255 10.2933 19.3855 8.59996 19.3855 6.51996C19.3855 4.39996 21.1055 2.66663 23.2388 2.66663C25.3588 2.66663 27.0922 4.38663 27.0922 6.51996C27.0788 8.59996 25.4388 10.2933 23.3722 10.36Z" fill="black"/>
<path d="M27.7222 19.6005C26.2288 20.6005 24.1355 20.9739 22.2022 20.7205C22.7088 19.6272 22.9755 18.4139 22.9888 17.1339C22.9888 15.8005 22.6955 14.5339 22.1355 13.4272C24.1088 13.1605 26.2022 13.5339 27.7088 14.5339C29.8155 15.9205 29.8155 18.2005 27.7222 19.6005Z" fill="black"/>
<path d="M8.58692 10.36C8.68025 10.3466 8.77358 10.3466 8.86692 10.36C10.9336 10.2933 12.5736 8.59996 12.5736 6.51996C12.5736 4.38663 10.8536 2.66663 8.72025 2.66663C6.60025 2.66663 4.88025 4.38663 4.88025 6.51996C4.88025 8.59996 6.52025 10.2933 8.58692 10.36Z" fill="black"/>
<path d="M8.73483 17.1341C8.73483 18.4275 9.01483 19.6541 9.5215 20.7608C7.6415 20.9608 5.6815 20.5608 4.2415 19.6141C2.13483 18.2141 2.13483 15.9341 4.2415 14.5341C5.66817 13.5741 7.6815 13.1874 9.57483 13.4008C9.02817 14.5208 8.73483 15.7875 8.73483 17.1341Z" fill="black"/>
<path d="M16.161 21.16C16.0544 21.1467 15.9344 21.1467 15.8144 21.16C13.361 21.08 11.401 19.0667 11.401 16.5867C11.4143 14.0533 13.4544 12 16.001 12C18.5344 12 20.5877 14.0533 20.5877 16.5867C20.5744 19.0667 18.6277 21.08 16.161 21.16Z" fill="black"/>
<path d="M11.8277 23.9208C9.81442 25.2674 9.81442 27.4808 11.8277 28.8141C14.1211 30.3474 17.8811 30.3474 20.1744 28.8141C22.1878 27.4674 22.1878 25.2541 20.1744 23.9208C17.8944 22.3874 14.1344 22.3874 11.8277 23.9208Z" fill="black"/>
</svg>
